HIERARCHY
ROOT hip
{
	OFFSET	0.00  0.00  0.00 
	CHANNELS 6 Xposition Yposition Zposition Xrotation Zrotation Yrotation
	JOINT abdomen
	{
		OFFSET	0.000000 1.799998 0.000000
		CHANNELS 3 Xrotation Zrotation Yrotation
		JOINT chest
		{
			OFFSET	0.000000 4.464001 -0.360000
			CHANNELS 3 Xrotation Zrotation Yrotation
			JOINT neck
			{
				OFFSET	0.000000 5.400002 -0.144000
				CHANNELS 3 Xrotation Zrotation Yrotation
				JOINT head
				{
					OFFSET	0.000000 1.655998 0.000000
					CHANNELS 3 Xrotation Zrotation Yrotation
				}
			}
			JOINT lCollar
			{
				OFFSET	1.872000 3.528000 -0.432000
				CHANNELS 3 Yrotation Zrotation Xrotation
				JOINT lShldr
				{
					OFFSET	1.656000 0.000000 0.000000
					CHANNELS 3 Zrotation Yrotation Xrotation
					JOINT lForeArm
					{
						OFFSET	5.400000 0.000000 0.000000
						CHANNELS 3 Yrotation Zrotation Xrotation
						JOINT lHand
						{
							OFFSET	4.392000 0.000000 0.000000
							CHANNELS 3 Zrotation Yrotation Xrotation
						}
					}
				}
			}
			JOINT rCollar
			{
				OFFSET	-1.872000 3.528000 -0.432000
				CHANNELS 3 Yrotation Zrotation Xrotation
				JOINT rShldr
				{
					OFFSET	-1.656000 0.000000 0.000000
					CHANNELS 3 Zrotation Yrotation Xrotation
					JOINT rForeArm
					{
						OFFSET	-5.400000 0.000000 0.000000
						CHANNELS 3 Yrotation Zrotation Xrotation
						JOINT rHand
						{
							OFFSET	-4.392000 0.000000 0.000000
							CHANNELS 3 Zrotation Yrotation Xrotation
						}
					}
				}
			}
		}
	}
	JOINT lThigh
	{
		OFFSET	2.808000 -0.864002 0.720000
		CHANNELS 3 Xrotation Zrotation Yrotation
		JOINT lShin
		{
			OFFSET	-1.080000 -10.583999 0.000000
			CHANNELS 3 Xrotation Zrotation Yrotation
			JOINT lFoot
			{
				OFFSET	0.000000 -10.152000 -0.648000
				CHANNELS 3 Xrotation Yrotation Zrotation
				End Site
				{
					OFFSET 0.000000 -1.296000 2.448000
				}
			}
		}
	}
	JOINT rThigh
	{
		OFFSET	-2.808000 -0.864002 0.720000
		CHANNELS 3 Xrotation Zrotation Yrotation
		JOINT rShin
		{
			OFFSET	1.080000 -10.583999 0.000000
			CHANNELS 3 Xrotation Zrotation Yrotation
			JOINT rFoot
			{
				OFFSET	0.000000 -10.152000 -0.648000
				CHANNELS 3 Xrotation Yrotation Zrotation
				End Site
				{
					OFFSET 0.000000 -1.296000 2.448000
				}
			}
		}
	}
}
MOTION
Frames:     15
Frame Time: 0.033333
0.000000 23.151886 0.000000 0.000000 0.000000 0.000000 0.000000 0.000000 0.000000 0.000000 0.000000 0.000000 0.000000 0.000000 0.000000 0.000000 0.000000 0.000000 0.000000 0.000000 0.000000 0.000000 0.000000 0.000000 0.000000 0.000000 0.000000 0.000000 0.000000 0.000000 9.990230 0.000000 0.000000 0.000000 0.000000 0.000000 0.000000 0.000000 0.000000 0.000000 0.000000 0.000000 0.000000 0.000000 0.000000 0.009766 0.000000 0.000000 -0.273437 0.000000 0.000000 0.000000 -0.058594 0.000000 0.020493 0.032569 -0.011854 0.497961 0.003586 0.012903 
2.557541 8.658073 -4.709592 1.939700 0.849000 -0.090600 7.752490 -0.020036 10.356900 12.226600 1.904360 -12.108900 -23.821899 -0.992746 0.191014 -14.000000 0.000000 0.000000 -30.000000 -17.372999 -6.797200 -50.973598 -18.289600 18.709999 -42.846802 -0.000000 20.000000 6.854150 3.410730 0.000000 30.000000 17.372999 -6.797200 50.973598 18.289600 18.709999 42.846802 0.000000 20.000000 -6.854150 -3.410730 0.000000 -88.388802 26.621201 -0.467411 92.981003 -0.203401 -0.211224 -11.000000 -0.000000 -0.000000 -92.388802 -25.621201 0.467411 92.981003 0.203401 0.211224 -3.000000 10.000000 0.000000 
2.558798 10.291003 -4.695834 2.827081 0.849000 -0.090600 4.135089 -0.251647 10.091780 10.462145 1.549939 -11.588215 -16.699028 -0.992747 0.191014 -14.390194 0.000000 0.000000 -30.000000 -20.526691 -7.595702 -50.967327 -14.584884 21.524750 -39.283760 0.000000 20.000000 6.854147 3.410731 0.000000 30.000000 20.526691 -7.595702 50.967327 14.584884 21.524750 39.283760 0.000000 20.000000 -6.854147 -3.410731 0.000000 -82.475952 22.883541 -4.309721 83.447693 -2.681546 -0.211971 -10.100115 1.332495 0.016367 -86.689804 -21.959200 8.275541 84.214493 2.681543 0.206311 -2.517858 8.048395 0.036081 
2.560342 12.337594 -4.678956 3.919020 0.849000 -0.090600 -0.253037 -0.489952 9.814250 8.332110 1.181300 -10.946100 -8.033080 -0.992748 0.191014 -14.873900 0.000000 0.000000 -30.000000 -24.467951 -8.593213 -50.957729 -10.106660 25.041018 -34.672310 0.000000 20.000000 6.854144 3.410733 0.000000 30.000000 24.467951 -8.593213 50.957729 10.106660 25.041018 34.672310 0.000000 20.000000 -6.854144 -3.410733 0.000000 -75.184097 18.398001 -8.943250 71.957603 -5.000000 -0.212959 -8.744300 2.956030 0.036418 -79.630203 -17.567900 17.381399 73.628899 5.000000 0.200623 -1.694740 5.644650 0.077897 
2.561995 14.607454 -4.660868 5.104276 0.849000 -0.090600 -4.736120 -0.611607 9.657224 6.192315 0.983398 -10.251343 0.932609 -0.992749 0.191014 -15.414839 0.000000 0.000000 -30.000000 -28.018112 -9.493148 -50.955303 -5.536793 28.213329 -31.079042 0.000000 20.000000 6.854142 3.410735 0.000000 30.000000 28.018112 -9.493148 50.955303 5.536793 28.213329 31.079042 0.000000 20.000000 -6.854142 -3.410735 0.000000 -67.197731 14.036155 -13.551408 60.559219 -5.000000 -0.214338 -6.164762 4.646420 0.057786 -71.758339 -13.313436 25.360762 63.038177 5.000000 0.196040 0.223404 3.025419 0.111774 
2.563690 17.028421 -4.642337 6.358150 0.849000 -0.090600 -8.759770 -0.625000 9.619140 4.336320 0.965835 -9.550620 9.277600 -0.992751 0.191015 -16.028200 0.000000 0.000000 -30.000000 -30.000000 -10.000000 -50.973598 -1.289600 30.000000 -30.846800 -0.000000 20.000000 6.854140 3.410730 0.000000 30.000000 30.000000 -10.000000 50.973598 1.289600 30.000000 30.846800 0.000000 20.000000 -6.854140 -3.410730 0.000000 -58.564499 10.732700 -17.337000 51.276600 -5.000000 -0.216589 -0.571758 6.248800 0.079367 -62.890598 -10.136700 30.000000 54.159901 5.000000 0.195306 4.901710 0.228555 0.117848 
2.565353 19.528339 -4.624171 7.664000 0.849000 -0.090600 -11.841600 -0.568439 9.666570 2.995400 1.089790 -8.890250 16.215401 -0.992753 0.191016 -16.727501 0.000000 0.000000 -30.000000 -30.000000 -10.000000 -50.973598 2.289980 30.000000 -34.726799 -0.000000 20.000000 6.854140 3.410720 0.000000 30.000000 30.000000 -10.000000 50.973598 -2.289980 30.000000 34.726799 0.000000 20.000000 -6.854140 -3.410720 0.000000 -49.421200 9.278070 -19.620300 45.792801 -4.675230 -0.220066 9.333230 7.608630 0.100116 -52.988998 -8.831700 30.000000 48.438900 4.675160 0.200534 13.551700 -2.670030 0.080869 
2.566896 22.035053 -4.607440 9.019451 0.849000 -0.090600 -13.924294 -0.470437 9.768900 2.091305 1.293350 -8.296474 21.689924 -0.992755 0.191017 -17.499439 0.000000 0.000000 -30.000000 -30.000000 -9.964947 -50.810173 5.141486 29.876436 -38.370201 0.000000 20.000000 6.854138 3.410716 0.000000 30.000000 30.000000 -9.964947 50.810173 -5.141486 29.876436 38.370201 0.000000 20.000000 -6.854138 -3.410716 0.000000 -40.435478 9.571659 -20.437389 43.794727 -4.655362 -0.224365 22.014784 8.600949 0.119204 -42.873569 -9.285542 27.451155 45.715305 4.655219 0.210189 24.773720 -5.395054 0.012155 
2.568215 24.476402 -4.593319 10.422384 0.849000 -0.090600 -15.044222 -0.356951 9.896425 1.474343 1.509067 -7.792476 25.802746 -0.992758 0.191017 -18.322506 0.000000 0.000000 -29.999996 -30.000000 -9.982770 -50.702404 7.301610 29.939266 -40.902309 0.000000 20.000000 6.854135 3.410717 0.000000 29.999996 30.000000 -9.982770 50.702404 -7.301610 29.939266 40.902309 0.000000 20.000000 -6.854135 -3.410717 0.000000 -32.429928 11.302210 -19.990488 44.501850 -4.807639 -0.228891 35.221619 9.103479 0.135796 -33.600815 -11.170424 23.421011 45.457584 4.807495 0.221837 36.509796 -7.614072 -0.070428 
2.569205 26.780226 -4.583002 11.869800 0.849000 -0.090600 -15.234400 -0.253906 10.019500 0.996402 1.669560 -7.401970 28.648800 -0.992761 0.191018 -19.174801 0.000000 0.000000 -30.000000 -30.000000 -10.000000 -50.973598 8.813990 30.000000 -42.714901 0.000000 20.000000 6.854130 3.410720 0.000000 30.000000 30.000000 -10.000000 50.973598 -8.813990 30.000000 42.714901 -0.000000 20.000000 -6.854130 -3.410720 0.000000 -26.233101 14.161700 -18.478399 47.142101 -5.000000 -0.233046 46.700500 8.992690 0.149038 -26.233101 -14.161700 18.478399 47.142101 5.000000 0.233046 46.700500 -8.992690 -0.149038 
2.569783 28.874367 -4.577384 13.352532 0.849000 -0.090600 -14.543873 -0.182451 10.113457 0.537135 1.721220 -7.142827 30.324856 -0.992764 0.191019 -20.034714 0.000000 0.000000 -30.000000 -29.090597 -9.973098 -51.871445 9.724058 29.905167 -44.138874 0.000000 19.999998 6.854125 3.410723 0.000000 30.000000 29.090597 -9.973098 51.871445 -9.724058 29.905167 44.138874 0.000000 19.999998 -6.854125 -3.410723 0.000000 -22.498926 17.857800 -16.099895 51.038193 -5.000000 -0.236344 54.638939 8.185504 0.158282 -21.612684 -17.954016 13.137908 50.293804 5.000000 0.241838 53.687069 -9.281243 -0.209194 
2.569970 30.686665 -4.576196 14.836774 0.849000 -0.090600 -13.085806 -0.144609 10.173573 0.087237 1.665539 -7.009556 30.935091 -0.992766 0.191020 -20.881840 0.000000 0.000000 -30.000000 -27.480530 -9.898268 -53.341206 10.084457 29.641392 -45.261677 0.000000 19.999998 6.854121 3.410724 0.000000 30.000000 27.480530 -9.898268 53.341206 -10.084457 29.641392 45.261677 0.000000 19.999998 -6.854121 -3.410724 0.000000 -21.182888 22.161009 -13.053600 55.892082 -5.000000 -0.238743 58.987610 6.760658 0.163686 -19.701353 -22.319237 7.697150 54.632137 5.000000 0.248043 57.413513 -8.569012 -0.249859 
2.569812 32.144958 -4.578877 16.282547 0.849000 -0.090600 -10.989400 -0.137626 10.200111 -0.334833 1.517787 -6.990829 30.585526 -0.992769 0.191021 -21.696068 0.000000 0.000000 -30.000000 -25.310640 -9.781650 -55.252525 9.949624 29.230314 -46.109879 0.000000 19.999998 6.854118 3.410726 0.000000 30.000000 25.310640 -9.781650 55.252525 -9.949624 29.230314 46.109879 0.000000 19.999998 -6.854118 -3.410726 0.000000 -22.065868 26.857512 -9.538111 61.500519 -5.000000 -0.240312 60.137947 4.837349 0.165611 -20.240791 -27.048513 2.399519 59.925156 5.000000 0.251940 58.224510 -7.030009 -0.273358 
2.569354 33.177090 -4.584863 17.649879 0.849000 -0.090600 -8.383850 -0.158747 10.193332 -0.710618 1.293231 -7.075316 29.382185 -0.992770 0.191021 -22.457291 0.000000 0.000000 -30.000000 -22.721762 -9.629383 -57.475060 9.373997 28.693577 -46.710068 0.000000 20.000000 6.854117 3.410727 0.000000 30.000000 22.721762 -9.629383 57.475060 -9.373997 28.693577 46.710068 0.000000 20.000000 -6.854117 -3.410727 0.000000 -24.928745 31.733513 -5.752011 67.660271 -5.000000 -0.241119 58.481392 2.534766 0.164419 -22.972679 -31.933014 -2.511612 65.940926 5.000000 0.253810 56.464741 -4.838246 -0.282014 
2.568643 33.710903 -4.593593 18.898800 0.849000 -0.090600 -5.398360 -0.205215 10.153500 -1.021660 1.007140 -7.251690 27.431101 -0.992772 0.191022 -23.145399 0.000000 0.000000 -30.000000 -19.854731 -9.447607 -59.878437 8.412013 28.052816 -47.088814 0.000000 20.000000 6.854116 3.410727 0.000000 30.000000 19.854731 -9.447607 59.878437 -8.412013 28.052816 47.088814 0.000000 20.000000 -6.854116 -3.410727 0.000000 -29.552401 36.575199 -1.893900 74.168098 -5.000000 -0.241235 54.409401 -0.027894 0.160470 -27.638700 -36.763901 -6.792850 72.447502 5.000000 0.253935 52.478901 -2.167740 -0.278152 
